<svg id="103:2" width="150" height="150" transform="rotate(180, 0, 0)" viewBox="0 0 410 410" xmlns="http://www.w3.org/2000/svg" xmlns:xlink="http://www.w3.org/1999/xlink"><g id="103:2_translate"><g transform="matrix(1,0,0,1,0,0)"><g id="103:2" opacity="1" style="mix-blend-mode:normal"><g><defs><clipPath id="103:2_clipPath" x="-50%" y="-50%" width="200%" height="200%"><path d="M0,0h410v0v410v0h-410v0v-410z" fill="white" clip-rule="nonzero"></path></clipPath></defs><g clip-path="url(#103:2_clipPath)"><path id="103:2_fill_path" d="M0,0h410v0v410v0h-410v0v-410z" fill-rule="nonzero" fill="rgb(255, 255, 255)" fill-opacity="1" style="mix-blend-mode:NORMAL"></path><g id="104:16_translate"><g transform="matrix(1,0,0,-1,56,309.4648)"><g id="104:16" opacity="1" style="mix-blend-mode:normal"><g><g><g id="104:20_translate"><g transform="matrix(1,0,0,1,0,0.2421)"><g id="104:20" opacity="1" style="mix-blend-mode:normal"><g><g><path id="104:20_fill_path" d="M40.77516,190.86267c-10.7,-8.1 -27.6,-31.29999 -33,-45.09999c-6,-15.5 -7,-20.60001 -7.6,-40.60001c-0.4,-15.8 -0.2,-20.3 1.5,-30.5c4.4,-25.2 12.5,-42.1 29.7,-61.80001c4,-4.6 8.9,-9.4 10.9,-10.6c4.8,-3 9.4,-3 11.8,-0.1c3.3,4.1 2.4,6.3 -8.6,18.6c-18.5,20.8 -27,40.20001 -29.6,67.10001c-3.4,34.8 6.9,63.90001 31.5,89.40001c8.1,8.3 9.8,11.79999 7,14.9c-2.9,3.2 -8.5,2.6 -13.6,-1.3z" fill-rule="nonzero" fill="rgb(0, 0, 0)" fill-opacity="1" style="mix-blend-mode:NORMAL"></path></g></g></g></g></g><g id="104:21_translate"><g transform="matrix(1,0,0,1,232.1443,0)"><g id="104:21" opacity="1" style="mix-blend-mode:normal"><g><g><path id="104:21_fill_path" d="M1.23089,192.40475c-2.7,-3 -1.4,-5.59999 8.5,-16.49998c10,-10.9 16.7,-20.50001 21.1,-29.90001c13.4,-28.9 12.5,-69.6 -2.1,-98.6c-5.2,-10.4 -9.1,-15.8 -18.8,-26.7c-5,-5.6 -9.4,-11.3 -9.7,-12.6c-0.9,-3.2 0.9,-6.5 4.2,-7.8c9.9,-3.7 35.3,27 44.3,53.5c5.4,15.7 6.5,24 6.5,47.6c0,20.5 -0.1,22.00001 -2.8,31.50001c-1.5,5.5 -4.1,12.89999 -5.7,16.39999c-6.9,14.6 -24.7,37.7 -33.4,43c-4.3,2.7 -9.7,2.69999 -12.1,0.09999z" fill-rule="nonzero" fill="rgb(0, 0, 0)" fill-opacity="1" style="mix-blend-mode:NORMAL"></path></g></g></g></g></g><g id="104:22_translate"><g transform="matrix(1,0,0,1,87.7804,13.8357)"><g id="104:22" opacity="1" style="mix-blend-mode:normal"><g><g><path id="104:22_fill_path" d="M45.49476,161.1691c-0.2,-17.4 -9.2,-38.40001 -29.6,-69.00001c-17.6,-26.4 -20.2,-44.1 -9.7,-65.6c2.4,-4.7 5.8,-9.1 12.5,-15.8c9.3,-9.2 14,-12.2 9,-5.7c-4.5,5.8 -5.9,11.6 -5.3,20.9c0.8,13.6 6.5,27.09999 20,47.59999c4.1,6.3 9.5,15.1 11.8,19.5l4.3,7.9l1.4,-3.4c2.9,-7.1 3.5,-14.9 2.2,-29.5c-1.4,-16 -0.7,-20.4 3.8,-25.3c3.6,-3.9 9.9,-5.6 17.8,-4.9l6.2,0.6l1.3,-3.2c2.5,-5.8 1.6,-12.8 -2.6,-20.4c-2.1,-3.7 -5.1,-8.5 -6.7,-10.6c-6.1,-7.6 -1.6,-4.7 9,5.9c8.8,8.8 11.6,12.3 14.5,18.4c10.3,21.1 8.7,39.4 -5.2,61.2c-2,3.2 -3.9,5.8 -4.3,5.8c-0.4,0 -2.19999,-2.5 -3.89999,-5.5c-3.4,-6 -7.1,-9.5 -10,-9.5c-2.4,0 -2.5,3.7 -0.4,13c4.2,19 -0.2,37.10001 -13.4,54.80001c-4.8,6.3 -17.6,19.09999 -21.6,21.39999c-0.6,0.4 -1,-2.79999 -1.1,-8.59999z" fill-rule="nonzero" fill="rgb(0, 0, 0)" fill-opacity="1" style="mix-blend-mode:NORMAL"></path><defs><clipPath id="104:22_stroke_clip_path" clipPathUnits="userSpaceOnUse"><path d="M45.49476,161.1691c-0.2,-17.4 -9.2,-38.40001 -29.6,-69.00001c-17.6,-26.4 -20.2,-44.1 -9.7,-65.6c2.4,-4.7 5.8,-9.1 12.5,-15.8c9.3,-9.2 14,-12.2 9,-5.7c-4.5,5.8 -5.9,11.6 -5.3,20.9c0.8,13.6 6.5,27.09999 20,47.59999c4.1,6.3 9.5,15.1 11.8,19.5l4.3,7.9l1.4,-3.4c2.9,-7.1 3.5,-14.9 2.2,-29.5c-1.4,-16 -0.7,-20.4 3.8,-25.3c3.6,-3.9 9.9,-5.6 17.8,-4.9l6.2,0.6l1.3,-3.2c2.5,-5.8 1.6,-12.8 -2.6,-20.4c-2.1,-3.7 -5.1,-8.5 -6.7,-10.6c-6.1,-7.6 -1.6,-4.7 9,5.9c8.8,8.8 11.6,12.3 14.5,18.4c10.3,21.1 8.7,39.4 -5.2,61.2c-2,3.2 -3.9,5.8 -4.3,5.8c-0.4,0 -2.19999,-2.5 -3.89999,-5.5c-3.4,-6 -7.1,-9.5 -10,-9.5c-2.4,0 -2.5,3.7 -0.4,13c4.2,19 -0.2,37.10001 -13.4,54.80001c-4.8,6.3 -17.6,19.09999 -21.6,21.39999c-0.6,0.4 -1,-2.79999 -1.1,-8.59999z"></path></clipPath></defs><g style="mix-blend-mode:NORMAL"><g clip-path="url(#104:22_stroke_clip_path)"><path id="104:22_stroke_path" d="M45.49476,161.1691c-0.2,-17.4 -9.2,-38.40001 -29.6,-69.00001c-17.6,-26.4 -20.2,-44.1 -9.7,-65.6c2.4,-4.7 5.8,-9.1 12.5,-15.8c9.3,-9.2 14,-12.2 9,-5.7c-4.5,5.8 -5.9,11.6 -5.3,20.9c0.8,13.6 6.5,27.09999 20,47.59999c4.1,6.3 9.5,15.1 11.8,19.5l4.3,7.9l1.4,-3.4c2.9,-7.1 3.5,-14.9 2.2,-29.5c-1.4,-16 -0.7,-20.4 3.8,-25.3c3.6,-3.9 9.9,-5.6 17.8,-4.9l6.2,0.6l1.3,-3.2c2.5,-5.8 1.6,-12.8 -2.6,-20.4c-2.1,-3.7 -5.1,-8.5 -6.7,-10.6c-6.1,-7.6 -1.6,-4.7 9,5.9c8.8,8.8 11.6,12.3 14.5,18.4c10.3,21.1 8.7,39.4 -5.2,61.2c-2,3.2 -3.9,5.8 -4.3,5.8c-0.4,0 -2.19999,-2.5 -3.89999,-5.5c-3.4,-6 -7.1,-9.5 -10,-9.5c-2.4,0 -2.5,3.7 -0.4,13c4.2,19 -0.2,37.10001 -13.4,54.80001c-4.8,6.3 -17.6,19.09999 -21.6,21.39999c-0.6,0.4 -1,-2.79999 -1.1,-8.59999z" fill="none" stroke="rgb(0, 0, 0)" stroke-width="2" stroke-linecap="butt" stroke-linejoin="miter" stroke-dasharray="0 0" stroke-opacity="1"></path></g></g></g></g></g></g></g></g></g></g></g></g></g></g></g></g></g><animateTransform href="#104:16" attributeName="transform" type="translate" values="143.6876 97.2324;143.6876 97.2324;143.6876 97.2324;143.6876 97.2324;143.6876 97.2324;143.6876 97.2324" dur="5s" repeatCount="indefinite" calcMode="spline" keyTimes="0;0.01;0.32;0.33;0.69;1" keySplines="0.5 0.35 0.15 1;0.5 0.35 0.15 1;0.5 0.35 0.15 1;0.5 0.35 0.15 1;0.5 0.35 0.15 1" additive="sum" fill="freeze"></animateTransform><animateTransform href="#104:16" attributeName="transform" type="scale" values="0 -1;0 -1;0.765 -1;0.765 -1;0 -1;0 -1" dur="5s" repeatCount="indefinite" calcMode="spline" keyTimes="0;0.01;0.32;0.33;0.69;1" keySplines="0.5 0.35 0.15 1;0.5 0.35 0.15 1;0.5 0.35 0.15 1;0.5 0.35 0.15 1;0.5 0.35 0.15 1" additive="sum" fill="freeze"></animateTransform><animateTransform href="#104:16" attributeName="transform" type="translate" values="-143.6876 -97.2324;-143.6876 -97.2324;-143.6876 -97.2324;-143.6876 -97.2324;-143.6876 -97.2324;-143.6876 -97.2324" dur="5s" repeatCount="indefinite" calcMode="spline" keyTimes="0;0.01;0.32;0.33;0.69;1" keySplines="0.5 0.35 0.15 1;0.5 0.35 0.15 1;0.5 0.35 0.15 1;0.5 0.35 0.15 1;0.5 0.35 0.15 1" additive="sum" fill="freeze"></animateTransform></svg>